<mxfile host="app.diagrams.net" modified="2023-04-19T09:36:35.155Z" agent="Mozilla/5.0 (Macintosh; Intel Mac OS X 10_15_7) AppleWebKit/537.36 (KHTML, like Gecko) Chrome/112.0.0.0 Safari/537.36" etag="GUnaJtJjjL2Afey6hX0d" version="21.1.8" type="github">
  <diagram name="第 1 页" id="1yYVKg7gYqVnLr0icWR6">
    <mxGraphModel dx="2261" dy="771" grid="1" gridSize="10" guides="1" tooltips="1" connect="1" arrows="1" fold="1" page="1" pageScale="1" pageWidth="827" pageHeight="1169" math="0" shadow="0">
      <root>
        <mxCell id="0" />
        <mxCell id="1" parent="0" />
        <mxCell id="9tb9bFtsTYVmH_khgkMe-1" value="" style="rounded=0;whiteSpace=wrap;html=1;fillColor=#fff2cc;strokeColor=#d6b656;" vertex="1" parent="1">
          <mxGeometry x="150" y="40" width="580" height="540" as="geometry" />
        </mxCell>
        <mxCell id="9tb9bFtsTYVmH_khgkMe-2" value="Business Layer" style="text;html=1;align=center;verticalAlign=middle;resizable=0;points=[];autosize=1;strokeColor=none;fillColor=none;" vertex="1" parent="1">
          <mxGeometry x="10" y="160" width="110" height="30" as="geometry" />
        </mxCell>
        <mxCell id="9tb9bFtsTYVmH_khgkMe-3" value="RETAIL COMMON" style="text;html=1;align=center;verticalAlign=middle;resizable=0;points=[];autosize=1;strokeColor=none;fillColor=none;" vertex="1" parent="1">
          <mxGeometry x="160" y="50" width="120" height="30" as="geometry" />
        </mxCell>
        <mxCell id="9tb9bFtsTYVmH_khgkMe-6" value="Retail Ekyc" style="rounded=0;whiteSpace=wrap;html=1;fillColor=#fff2cc;strokeColor=#d6b656;" vertex="1" parent="1">
          <mxGeometry x="770" y="47" width="120" height="60" as="geometry" />
        </mxCell>
        <mxCell id="9tb9bFtsTYVmH_khgkMe-7" value="SME COMMON" style="rounded=0;whiteSpace=wrap;html=1;fillColor=#fff2cc;strokeColor=#d6b656;" vertex="1" parent="1">
          <mxGeometry x="770" y="178" width="120" height="60" as="geometry" />
        </mxCell>
        <mxCell id="9tb9bFtsTYVmH_khgkMe-8" value="SME EKYC" style="rounded=0;whiteSpace=wrap;html=1;fillColor=#fff2cc;strokeColor=#d6b656;" vertex="1" parent="1">
          <mxGeometry x="770" y="113" width="120" height="60" as="geometry" />
        </mxCell>
        <mxCell id="9tb9bFtsTYVmH_khgkMe-9" value="..." style="rounded=0;whiteSpace=wrap;html=1;fillColor=#fff2cc;strokeColor=#d6b656;" vertex="1" parent="1">
          <mxGeometry x="770" y="243" width="120" height="60" as="geometry" />
        </mxCell>
        <mxCell id="9tb9bFtsTYVmH_khgkMe-10" value="" style="endArrow=none;dashed=1;html=1;rounded=0;" edge="1" parent="1">
          <mxGeometry width="50" height="50" relative="1" as="geometry">
            <mxPoint x="22.5" y="460" as="sourcePoint" />
            <mxPoint x="752.5" y="460" as="targetPoint" />
          </mxGeometry>
        </mxCell>
        <mxCell id="9tb9bFtsTYVmH_khgkMe-11" value="Service Layer" style="text;html=1;align=center;verticalAlign=middle;resizable=0;points=[];autosize=1;strokeColor=none;fillColor=none;" vertex="1" parent="1">
          <mxGeometry x="17.5" y="500" width="100" height="30" as="geometry" />
        </mxCell>
        <mxCell id="9tb9bFtsTYVmH_khgkMe-12" value="Component" style="rounded=0;whiteSpace=wrap;html=1;fillColor=#f5f5f5;strokeColor=#666666;fontColor=#333333;" vertex="1" parent="1">
          <mxGeometry x="150" y="480" width="127.5" height="70" as="geometry" />
        </mxCell>
        <mxCell id="9tb9bFtsTYVmH_khgkMe-15" value="" style="endArrow=none;dashed=1;html=1;rounded=0;" edge="1" parent="1">
          <mxGeometry width="50" height="50" relative="1" as="geometry">
            <mxPoint x="10" y="685" as="sourcePoint" />
            <mxPoint x="780" y="685" as="targetPoint" />
          </mxGeometry>
        </mxCell>
        <mxCell id="9tb9bFtsTYVmH_khgkMe-16" value="Native Layer" style="text;html=1;align=center;verticalAlign=middle;resizable=0;points=[];autosize=1;strokeColor=none;fillColor=none;" vertex="1" parent="1">
          <mxGeometry x="20" y="740" width="90" height="30" as="geometry" />
        </mxCell>
        <mxCell id="9tb9bFtsTYVmH_khgkMe-20" value="Native" style="rounded=0;whiteSpace=wrap;html=1;" vertex="1" parent="1">
          <mxGeometry x="130" y="720" width="610" height="75" as="geometry" />
        </mxCell>
        <mxCell id="9tb9bFtsTYVmH_khgkMe-24" value="Boundle" style="rounded=0;whiteSpace=wrap;html=1;fillColor=#fff2cc;strokeColor=#d6b656;" vertex="1" parent="1">
          <mxGeometry x="-30" y="41" width="74" height="40" as="geometry" />
        </mxCell>
        <mxCell id="9tb9bFtsTYVmH_khgkMe-25" value="New" style="rounded=0;whiteSpace=wrap;html=1;fillColor=#f8cecc;strokeColor=#b85450;" vertex="1" parent="1">
          <mxGeometry x="-30" y="91" width="78" height="40" as="geometry" />
        </mxCell>
        <mxCell id="9tb9bFtsTYVmH_khgkMe-26" value="Change" style="rounded=0;whiteSpace=wrap;html=1;fillColor=#d5e8d4;strokeColor=#82b366;" vertex="1" parent="1">
          <mxGeometry x="68" y="40" width="70" height="40" as="geometry" />
        </mxCell>
        <mxCell id="9tb9bFtsTYVmH_khgkMe-28" value="" style="rounded=0;whiteSpace=wrap;html=1;" vertex="1" parent="1">
          <mxGeometry x="166" y="80" width="554" height="230" as="geometry" />
        </mxCell>
        <mxCell id="9tb9bFtsTYVmH_khgkMe-29" value="Transfer" style="text;html=1;align=center;verticalAlign=middle;resizable=0;points=[];autosize=1;strokeColor=none;fillColor=none;" vertex="1" parent="1">
          <mxGeometry x="167" y="81" width="70" height="30" as="geometry" />
        </mxCell>
        <mxCell id="9tb9bFtsTYVmH_khgkMe-31" value="TransferLanding" style="rounded=0;whiteSpace=wrap;html=1;fillColor=#d5e8d4;strokeColor=#82b366;" vertex="1" parent="1">
          <mxGeometry x="182" y="109" width="120" height="60" as="geometry" />
        </mxCell>
        <mxCell id="9tb9bFtsTYVmH_khgkMe-32" value="PaynowTransfer" style="rounded=0;whiteSpace=wrap;html=1;fillColor=#d5e8d4;strokeColor=#82b366;" vertex="1" parent="1">
          <mxGeometry x="182" y="175" width="120" height="60" as="geometry" />
        </mxCell>
        <mxCell id="9tb9bFtsTYVmH_khgkMe-34" value="ShopeePayTransfer" style="rounded=0;whiteSpace=wrap;html=1;fillColor=#f8cecc;strokeColor=#b85450;" vertex="1" parent="1">
          <mxGeometry x="310" y="109" width="120" height="60" as="geometry" />
        </mxCell>
        <mxCell id="9tb9bFtsTYVmH_khgkMe-35" value="TransferConfirm" style="rounded=0;whiteSpace=wrap;html=1;fillColor=#d5e8d4;strokeColor=#82b366;" vertex="1" parent="1">
          <mxGeometry x="310" y="175" width="120" height="60" as="geometry" />
        </mxCell>
        <mxCell id="9tb9bFtsTYVmH_khgkMe-36" value="TransferInputAmount" style="rounded=0;whiteSpace=wrap;html=1;fillColor=#d5e8d4;strokeColor=#82b366;" vertex="1" parent="1">
          <mxGeometry x="182" y="243" width="120" height="60" as="geometry" />
        </mxCell>
        <mxCell id="9tb9bFtsTYVmH_khgkMe-37" value="PayNowScan" style="rounded=0;whiteSpace=wrap;html=1;fillColor=#d5e8d4;strokeColor=#82b366;" vertex="1" parent="1">
          <mxGeometry x="310" y="243" width="120" height="60" as="geometry" />
        </mxCell>
        <mxCell id="9tb9bFtsTYVmH_khgkMe-38" value="BankList" style="rounded=0;whiteSpace=wrap;html=1;fillColor=#f5f5f5;strokeColor=#666666;fontColor=#333333;" vertex="1" parent="1">
          <mxGeometry x="442.5" y="111" width="120" height="60" as="geometry" />
        </mxCell>
        <mxCell id="9tb9bFtsTYVmH_khgkMe-39" value="TransferResult" style="rounded=0;whiteSpace=wrap;html=1;fillColor=#d5e8d4;strokeColor=#82b366;" vertex="1" parent="1">
          <mxGeometry x="442.5" y="178" width="120" height="60" as="geometry" />
        </mxCell>
        <mxCell id="9tb9bFtsTYVmH_khgkMe-40" value="" style="rounded=0;whiteSpace=wrap;html=1;" vertex="1" parent="1">
          <mxGeometry x="166" y="320" width="284" height="110" as="geometry" />
        </mxCell>
        <mxCell id="9tb9bFtsTYVmH_khgkMe-41" value="TransferHistory" style="text;html=1;align=center;verticalAlign=middle;resizable=0;points=[];autosize=1;strokeColor=none;fillColor=none;" vertex="1" parent="1">
          <mxGeometry x="169" y="320" width="110" height="30" as="geometry" />
        </mxCell>
        <mxCell id="9tb9bFtsTYVmH_khgkMe-42" value="TransactionDetails" style="rounded=0;whiteSpace=wrap;html=1;fillColor=#d5e8d4;strokeColor=#82b366;" vertex="1" parent="1">
          <mxGeometry x="182" y="350" width="120" height="60" as="geometry" />
        </mxCell>
        <mxCell id="9tb9bFtsTYVmH_khgkMe-43" value="TransactionHistory" style="rounded=0;whiteSpace=wrap;html=1;fillColor=#d5e8d4;strokeColor=#82b366;" vertex="1" parent="1">
          <mxGeometry x="308" y="350" width="120" height="60" as="geometry" />
        </mxCell>
        <mxCell id="9tb9bFtsTYVmH_khgkMe-44" value="TransferInput&lt;br&gt;AccountName" style="rounded=0;whiteSpace=wrap;html=1;fillColor=#f5f5f5;strokeColor=#666666;fontColor=#333333;" vertex="1" parent="1">
          <mxGeometry x="442.5" y="243" width="120" height="60" as="geometry" />
        </mxCell>
        <mxCell id="9tb9bFtsTYVmH_khgkMe-45" value="Service" style="rounded=0;whiteSpace=wrap;html=1;fillColor=#d5e8d4;strokeColor=#82b366;" vertex="1" parent="1">
          <mxGeometry x="289" y="480" width="125" height="70" as="geometry" />
        </mxCell>
        <mxCell id="9tb9bFtsTYVmH_khgkMe-47" value="utils" style="rounded=0;whiteSpace=wrap;html=1;fillColor=#d5e8d4;strokeColor=#82b366;" vertex="1" parent="1">
          <mxGeometry x="428" y="480" width="125" height="70" as="geometry" />
        </mxCell>
        <mxCell id="9tb9bFtsTYVmH_khgkMe-48" value="Hooks" style="rounded=0;whiteSpace=wrap;html=1;fillColor=#d5e8d4;strokeColor=#82b366;" vertex="1" parent="1">
          <mxGeometry x="570" y="480" width="125" height="70" as="geometry" />
        </mxCell>
        <mxCell id="9tb9bFtsTYVmH_khgkMe-50" value="" style="endArrow=none;dashed=1;html=1;rounded=0;exitX=0.75;exitY=1;exitDx=0;exitDy=0;entryX=0.75;entryY=0;entryDx=0;entryDy=0;" edge="1" parent="1" source="9tb9bFtsTYVmH_khgkMe-28" target="9tb9bFtsTYVmH_khgkMe-28">
          <mxGeometry width="50" height="50" relative="1" as="geometry">
            <mxPoint x="550" y="140" as="sourcePoint" />
            <mxPoint x="600" y="90" as="targetPoint" />
          </mxGeometry>
        </mxCell>
        <mxCell id="9tb9bFtsTYVmH_khgkMe-51" value="Component" style="rounded=0;whiteSpace=wrap;html=1;fillColor=#d5e8d4;strokeColor=#82b366;" vertex="1" parent="1">
          <mxGeometry x="610" y="128" width="95.5" height="50" as="geometry" />
        </mxCell>
        <mxCell id="9tb9bFtsTYVmH_khgkMe-55" value="" style="shape=flexArrow;endArrow=classic;html=1;rounded=0;entryX=1;entryY=0.5;entryDx=0;entryDy=0;" edge="1" parent="1" target="9tb9bFtsTYVmH_khgkMe-39">
          <mxGeometry width="50" height="50" relative="1" as="geometry">
            <mxPoint x="610" y="208" as="sourcePoint" />
            <mxPoint x="640" y="-20" as="targetPoint" />
          </mxGeometry>
        </mxCell>
        <mxCell id="9tb9bFtsTYVmH_khgkMe-57" value="" style="shape=flexArrow;endArrow=classic;html=1;rounded=0;entryX=0.5;entryY=1;entryDx=0;entryDy=0;" edge="1" parent="1">
          <mxGeometry width="50" height="50" relative="1" as="geometry">
            <mxPoint x="427" y="700" as="sourcePoint" />
            <mxPoint x="427" y="670" as="targetPoint" />
          </mxGeometry>
        </mxCell>
        <mxCell id="9tb9bFtsTYVmH_khgkMe-58" value="" style="shape=flexArrow;endArrow=classic;html=1;rounded=0;" edge="1" parent="1">
          <mxGeometry width="50" height="50" relative="1" as="geometry">
            <mxPoint x="427" y="470" as="sourcePoint" />
            <mxPoint x="427" y="440" as="targetPoint" />
          </mxGeometry>
        </mxCell>
        <mxCell id="9tb9bFtsTYVmH_khgkMe-59" value="Share" style="rounded=0;whiteSpace=wrap;html=1;fillColor=#fff2cc;strokeColor=#d6b656;" vertex="1" parent="1">
          <mxGeometry x="150" y="600" width="120" height="60" as="geometry" />
        </mxCell>
        <mxCell id="9tb9bFtsTYVmH_khgkMe-60" value="Common" style="rounded=0;whiteSpace=wrap;html=1;fillColor=#fff2cc;strokeColor=#d6b656;" vertex="1" parent="1">
          <mxGeometry x="289" y="600" width="120" height="60" as="geometry" />
        </mxCell>
        <mxCell id="9tb9bFtsTYVmH_khgkMe-62" value="" style="shape=flexArrow;endArrow=classic;html=1;rounded=0;exitX=0.5;exitY=0;exitDx=0;exitDy=0;" edge="1" parent="1" source="9tb9bFtsTYVmH_khgkMe-59">
          <mxGeometry width="50" height="50" relative="1" as="geometry">
            <mxPoint x="213.25" y="590" as="sourcePoint" />
            <mxPoint x="210" y="560" as="targetPoint" />
          </mxGeometry>
        </mxCell>
        <mxCell id="9tb9bFtsTYVmH_khgkMe-63" value="" style="shape=flexArrow;endArrow=classic;html=1;rounded=0;exitX=0.5;exitY=0;exitDx=0;exitDy=0;" edge="1" parent="1">
          <mxGeometry width="50" height="50" relative="1" as="geometry">
            <mxPoint x="351" y="600" as="sourcePoint" />
            <mxPoint x="351" y="560" as="targetPoint" />
          </mxGeometry>
        </mxCell>
      </root>
    </mxGraphModel>
  </diagram>
</mxfile>
